<svg xmlns="http://www.w3.org/2000/svg" xmlns:xlink="http://www.w3.org/1999/xlink" width="220" height="25" viewBox="0 0 220 25"><defs><path id="a" d="M26.84 24h-5.76v-8.448l.128-6.816h-.064L16.504 24h-5.248L6.68 8.736h-.096l.128 6.816V24H.952V2.88h9.216l2.848 10.016 1.056 4.192h.064l1.056-4.192L18.04 2.88h8.8V24zM44.712 9.872C46.237 11.333 47 13.376 47 16s-.763 4.667-2.288 6.128c-1.525 1.461-3.664 2.192-6.416 2.192-2.752 0-4.89-.73-6.416-2.192-1.525-1.461-2.288-3.504-2.288-6.128s.763-4.667 2.288-6.128c1.525-1.461 3.664-2.192 6.416-2.192 2.752 0 4.89.73 6.416 2.192zm-8.128 3.104c-.33.565-.496 1.573-.496 3.024 0 1.45.165 2.459.496 3.024.33.565.901.848 1.712.848.81 0 1.381-.283 1.712-.848.33-.565.496-1.573.496-3.024 0-1.45-.165-2.459-.496-3.024-.33-.565-.901-.848-1.712-.848-.81 0-1.381.283-1.712.848zM64.808 9.12c.928.96 1.392 2.315 1.392 4.064V24h-6.464v-9.088c0-.875-.139-1.493-.416-1.856-.277-.363-.683-.544-1.216-.544-.683 0-1.216.25-1.6.752-.384.501-.576 1.275-.576 2.32V24h-6.464V8h5.824l.16 3.296c.47-1.173 1.173-2.07 2.112-2.688.939-.619 2.07-.928 3.392-.928 1.643 0 2.928.48 3.856 1.44zm4.944-3.2c-.555-.448-.832-1.173-.832-2.176 0-1.024.277-1.76.832-2.208.555-.448 1.483-.672 2.784-.672 1.301 0 2.23.224 2.784.672.555.448.832 1.184.832 2.208 0 1.003-.277 1.728-.832 2.176-.555.448-1.483.672-2.784.672-1.301 0-2.23-.224-2.784-.672zM75.768 24h-6.464V8h6.464v16zM92.84 9.168c1.27.992 1.99 2.235 2.16 3.728l-5.984 1.824c-.064-1.728-.672-2.592-1.824-2.592-.853 0-1.477.304-1.872.912-.395.608-.592 1.616-.592 3.024s.208 2.395.624 2.96c.416.565 1.019.848 1.808.848 1.152 0 1.824-.779 2.016-2.336l5.792 1.824c-.064.917-.41 1.755-1.04 2.512-.63.757-1.515 1.355-2.656 1.792-1.141.437-2.501.656-4.08.656-2.901 0-5.12-.72-6.656-2.16C79 20.72 78.232 18.667 78.232 16c0-2.645.757-4.693 2.272-6.144 1.515-1.45 3.637-2.176 6.368-2.176 2.71 0 4.699.496 5.968 1.488zm21.648 11.152l-.512 3.424a4.67 4.67 0 0 1-2.272.576c-1.216 0-2.224-.219-3.024-.656-.8-.437-1.328-1.083-1.584-1.936-.47.81-1.179 1.445-2.128 1.904-.95.459-2.139.688-3.568.688-1.621 0-2.853-.336-3.696-1.008-.843-.672-1.264-1.637-1.264-2.896 0-1.344.48-2.432 1.44-3.264.96-.832 2.56-1.472 4.8-1.92l3.392-.704v-.608c0-.619-.16-1.099-.48-1.44-.32-.341-.768-.512-1.344-.512-.64 0-1.163.165-1.568.496-.405.33-.65.901-.736 1.712l-5.312-1.12c.235-1.707 1.008-3.03 2.32-3.968 1.312-.939 3.152-1.408 5.52-1.408 5.333 0 8 2.123 8 6.368v5.12c0 .853.373 1.28 1.12 1.28.363 0 .661-.043.896-.128zm-9.04-.272c.416-.33.624-.795.624-1.392v-1.472l-1.76.448c-1.11.277-1.664.832-1.664 1.664 0 .405.123.715.368.928.245.213.57.32.976.32.555 0 1.04-.165 1.456-.496zM138.76 3.376c1.461.544 2.864 1.467 4.208 2.768l-3.2 4.128c-.853-.981-1.765-1.69-2.736-2.128-.97-.437-2.085-.656-3.344-.656-.917 0-1.632.15-2.144.448-.512.299-.768.693-.768 1.184 0 .384.267.683.8.896.533.213 1.419.437 2.656.672 2.048.363 3.685.837 4.912 1.424 1.227.587 2.123 1.328 2.688 2.224.565.896.848 2.005.848 3.328 0 1.408-.405 2.613-1.216 3.616-.81 1.003-1.91 1.76-3.296 2.272-1.387.512-2.955.768-4.704.768-2.432 0-4.395-.261-5.888-.784-1.493-.523-2.88-1.35-4.16-2.48l3.04-4.48c.853 1.003 1.808 1.723 2.864 2.16 1.056.437 2.299.656 3.728.656 1.941 0 2.912-.47 2.912-1.408 0-.405-.283-.725-.848-.96s-1.477-.47-2.736-.704c-1.707-.32-3.141-.704-4.304-1.152-1.163-.448-2.128-1.115-2.896-2-.768-.885-1.152-2.064-1.152-3.536 0-1.387.373-2.613 1.12-3.68.747-1.067 1.835-1.899 3.264-2.496 1.43-.597 3.136-.896 5.12-.896 2.027 0 3.77.272 5.232.816zM162.2 20.32l-.512 3.424a4.67 4.67 0 0 1-2.272.576c-1.216 0-2.224-.219-3.024-.656-.8-.437-1.328-1.083-1.584-1.936-.47.81-1.179 1.445-2.128 1.904-.95.459-2.139.688-3.568.688-1.621 0-2.853-.336-3.696-1.008-.843-.672-1.264-1.637-1.264-2.896 0-1.344.48-2.432 1.44-3.264.96-.832 2.56-1.472 4.8-1.92l3.392-.704v-.608c0-.619-.16-1.099-.48-1.44-.32-.341-.768-.512-1.344-.512-.64 0-1.163.165-1.568.496-.405.33-.65.901-.736 1.712l-5.312-1.12c.235-1.707 1.008-3.03 2.32-3.968 1.312-.939 3.152-1.408 5.52-1.408 5.333 0 8 2.123 8 6.368v5.12c0 .853.373 1.28 1.12 1.28.363 0 .661-.043.896-.128zm-9.04-.272c.416-.33.624-.795.624-1.392v-1.472l-1.76.448c-1.11.277-1.664.832-1.664 1.664 0 .405.123.715.368.928.245.213.57.32.976.32.555 0 1.04-.165 1.456-.496zm16.976-2.032c0 .683.107 1.173.32 1.472.213.299.576.448 1.088.448.47 0 .928-.075 1.376-.224l-.352 3.68c-.384.277-.923.501-1.616.672a8.61 8.61 0 0 1-2.064.256c-1.856 0-3.19-.416-4-1.248-.81-.832-1.216-2.197-1.216-4.096V1.408h6.464v16.608zm16.032 5.152c-.512.341-1.205.619-2.08.832-.875.213-1.728.32-2.56.32-2.133 0-3.733-.427-4.8-1.28-1.067-.853-1.6-2.24-1.6-4.16v-6.432h-2.592V8h2.592V4.512l6.464-1.792V8h4.384v4.448h-4.384v5.408c0 .747.165 1.28.496 1.6.33.32.837.48 1.52.48.81 0 1.525-.181 2.144-.544l.416 3.776zm17.856-5.696h-10.528c.128.896.416 1.525.864 1.888s1.077.544 1.888.544c1.301 0 2.101-.512 2.4-1.536l5.216 1.504c-.405 1.45-1.285 2.555-2.64 3.312-1.355.757-3.013 1.136-4.976 1.136-2.901 0-5.12-.72-6.656-2.16-1.536-1.44-2.304-3.493-2.304-6.16 0-2.645.752-4.693 2.256-6.144 1.504-1.45 3.621-2.176 6.352-2.176 2.667 0 4.715.71 6.144 2.128 1.43 1.419 2.144 3.355 2.144 5.808 0 .768-.053 1.387-.16 1.856zm-9.744-4.8c-.395.405-.656 1.067-.784 1.984h4.64c-.107-.875-.336-1.525-.688-1.952-.352-.427-.859-.64-1.52-.64-.704 0-1.253.203-1.648.608zm24.784-4.608l-.608 5.344c-.192-.15-.47-.267-.832-.352a5.166 5.166 0 0 0-1.184-.128c-1.003 0-1.813.272-2.432.816-.619.544-.928 1.339-.928 2.384V24h-6.464V8h5.792l.192 3.744c.384-1.301.97-2.304 1.76-3.008.79-.704 1.792-1.056 3.008-1.056.747 0 1.312.128 1.696.384z"/><linearGradient id="b" x1="0%" y1="50%" y2="50%"><stop offset="0%" stop-color="#1C79C0"/><stop offset="48.447%" stop-color="#0389ED"/><stop offset="100%" stop-color="#0DD3FF"/></linearGradient></defs><g fill="none" fill-rule="evenodd"><mask id="c" fill="#fff"><use xlink:href="#a"/></mask><use fill="#000" fill-opacity=".87" xlink:href="#a"/><path fill="url(#b)" d="M1-22h234v56H1z" mask="url(#c)" transform="matrix(1 0 0 -1 0 12)"/></g></svg>