<svg xmlns="http://www.w3.org/2000/svg" width="220" height="25" preserveAspectRatio="xMinYMin meet"><defs><filter id="a" filterUnits="userSpaceOnUse" x="1" y="-22" width="234" height="56"><feColorMatrix values="1 0 0 0 0 0 1 0 0 0 0 0 1 0 0 0 0 0 1 0"/></filter></defs><mask maskUnits="userSpaceOnUse" x="1" y="-22" width="234" height="56" id="b"><g filter="url(#a)"><path d="M26.8 24H21v-8.4l.1-6.8H21L16.5 24h-5.2L6.7 8.7h-.1l.1 6.8V24H1V2.9h9.2l2.8 10 1.1 4.2h.1l1.1-4.2 2.8-10h8.8V24zM44.7 9.9c1.5 1.5 2.3 3.5 2.3 6.1s-.8 4.7-2.3 6.1-3.7 2.2-6.4 2.2-4.9-.7-6.4-2.2c-1.5-1.5-2.3-3.5-2.3-6.1s.8-4.7 2.3-6.1c1.5-1.5 3.7-2.2 6.4-2.2s4.9.7 6.4 2.2zM36.6 13c-.3.6-.5 1.6-.5 3 0 1.5.2 2.5.5 3 .3.6.9.8 1.7.8.8 0 1.4-.3 1.7-.8.3-.6.5-1.6.5-3s-.2-2.5-.5-3c-.3-.6-.9-.8-1.7-.8-.8-.1-1.4.2-1.7.8zm28.2-3.9c.9 1 1.4 2.3 1.4 4.1V24h-6.5v-9.1c0-.9-.1-1.5-.4-1.9s-.7-.5-1.2-.5c-.7 0-1.2.2-1.6.8-.4.5-.6 1.3-.6 2.3V24h-6.5V8h5.8l.2 3.3c.5-1.2 1.2-2.1 2.1-2.7 1-.6 2.1-.9 3.5-.9 1.6 0 2.9.5 3.8 1.4zm5-3.2c-.6-.4-.8-1.2-.8-2.2 0-1 .3-1.8.8-2.2s1.5-.7 2.8-.7c1.3 0 2.2.2 2.8.7.6.4.8 1.2.8 2.2 0 1-.3 1.7-.8 2.2s-1.5.7-2.8.7c-1.4 0-2.3-.2-2.8-.7zm6 18.1h-6.5V8h6.5v16zm17-14.8c1.3 1 2 2.2 2.2 3.7l-6 1.8c-.1-1.7-.7-2.6-1.8-2.6-.9 0-1.5.3-1.9.9-.4.6-.6 1.6-.6 3s.2 2.4.6 3c.4.6 1 .8 1.8.8 1.2 0 1.8-.8 2-2.3l5.8 1.8c-.1.9-.4 1.8-1 2.5-.6.8-1.5 1.4-2.7 1.8s-2.5.7-4.1.7c-2.9 0-5.1-.7-6.7-2.2-1.5-1.4-2.3-3.5-2.3-6.2 0-2.6.8-4.7 2.3-6.1 1.5-1.4 3.6-2.2 6.4-2.2 2.8.1 4.8.6 6 1.6zm21.7 11.1l-.5 3.4c-.7.4-1.5.6-2.3.6-1.2 0-2.2-.2-3-.7s-1.3-1.1-1.6-1.9c-.5.8-1.2 1.4-2.1 1.9-.9.5-2.1.7-3.6.7-1.6 0-2.9-.3-3.7-1-.8-.7-1.3-1.6-1.3-2.9 0-1.3.5-2.4 1.4-3.3s2.6-1.5 4.8-1.9l3.4-.7v-.6c0-.6-.2-1.1-.5-1.4-.3-.3-.8-.5-1.3-.5-.6 0-1.2.2-1.6.5-.4.3-.7.9-.7 1.7l-5.3-1.1c.2-1.7 1-3 2.3-4 1.3-.9 3.2-1.4 5.5-1.4 5.3 0 8 2.1 8 6.4v5.1c0 .9.4 1.3 1.1 1.3.5-.1.8-.1 1-.2zm-9.1-.3c.4-.3.6-.8.6-1.4v-1.5l-1.8.4c-1.1.3-1.7.8-1.7 1.7 0 .4.1.7.4.9.2.2.6.3 1 .3.6.1 1.1 0 1.5-.4zm33.4-16.6c1.5.5 2.9 1.5 4.2 2.8l-3.2 4.1c-.9-1-1.8-1.7-2.7-2.1-1-.4-2.1-.7-3.3-.7-.9 0-1.6.2-2.1.4-.5.3-.8.7-.8 1.2 0 .4.3.7.8.9s1.4.4 2.7.7c2 .4 3.7.8 4.9 1.4s2.1 1.3 2.7 2.2.8 2 .8 3.3c0 1.4-.4 2.6-1.2 3.6-.8 1-1.9 1.8-3.3 2.3-1.4.5-3 .8-4.7.8-2.4 0-4.4-.3-5.9-.8s-2.9-1.4-4.2-2.5l3-4.5c.9 1 1.8 1.7 2.9 2.2s2.3.7 3.7.7c1.9 0 2.9-.5 2.9-1.4 0-.4-.3-.7-.8-1s-1.5-.5-2.7-.7c-1.7-.3-3.1-.7-4.3-1.2-1.2-.4-2.1-1.1-2.9-2s-1.2-2.1-1.2-3.5.4-2.6 1.1-3.7 1.8-1.9 3.3-2.5c1.4-.6 3.1-.9 5.1-.9 2 .1 3.7.3 5.2.9zm23.4 16.9l-.5 3.4c-.7.4-1.5.6-2.3.6-1.2 0-2.2-.2-3-.7s-1.3-1.1-1.6-1.9c-.5.8-1.2 1.4-2.1 1.9-.9.5-2.1.7-3.6.7-1.6 0-2.9-.3-3.7-1-.8-.7-1.3-1.6-1.3-2.9 0-1.3.5-2.4 1.4-3.3s2.6-1.5 4.8-1.9l3.4-.7v-.6c0-.6-.2-1.1-.5-1.4-.3-.3-.8-.5-1.3-.5-.6 0-1.2.2-1.6.5-.4.3-.6.9-.7 1.7l-5.3-1.1c.2-1.7 1-3 2.3-4 1.3-.9 3.2-1.4 5.5-1.4 5.3 0 8 2.1 8 6.4v5.1c0 .9.4 1.3 1.1 1.3.5-.1.8-.1 1-.2zm-9-.3c.4-.3.6-.8.6-1.4v-1.5l-1.8.4c-1.1.3-1.7.8-1.7 1.7 0 .4.1.7.4.9s.6.3 1 .3c.6.1 1 0 1.5-.4zm16.9-2c0 .7.1 1.2.3 1.5.2.3.6.4 1.1.4.5 0 .9-.1 1.4-.2l-.4 3.7c-.4.3-.9.5-1.6.7-.7.2-1.4.3-2.1.3-1.9 0-3.2-.4-4-1.2-.8-.8-1.2-2.2-1.2-4.1V1.4h6.5V18zm16.1 5.2c-.5.3-1.2.6-2.1.8-.9.2-1.7.3-2.6.3-2.1 0-3.7-.4-4.8-1.3s-1.6-2.2-1.6-4.2v-6.4h-2.6V8h2.6V4.5l6.5-1.8V8h4.4v4.4h-4.4v5.4c0 .7.2 1.3.5 1.6.3.3.8.5 1.5.5.8 0 1.5-.2 2.1-.5.1 0 .5 3.8.5 3.8zm17.8-5.7h-10.5c.1.9.4 1.5.9 1.9s1.1.5 1.9.5c1.3 0 2.1-.5 2.4-1.5l5.2 1.5c-.4 1.5-1.3 2.6-2.6 3.3s-3 1.1-5 1.1c-2.9 0-5.1-.7-6.7-2.2-1.5-1.4-2.3-3.5-2.3-6.2 0-2.6.8-4.7 2.3-6.1 1.5-1.4 3.6-2.2 6.4-2.2 2.7 0 4.7.7 6.1 2.1 1.4 1.4 2.1 3.4 2.1 5.8 0 .9-.1 1.5-.2 2zm-9.7-4.8c-.4.4-.7 1.1-.8 2h4.6c-.1-.9-.3-1.5-.7-2s-.9-.6-1.5-.6c-.7 0-1.2.2-1.6.6zm24.8-4.6l-.6 5.3c-.2-.1-.5-.3-.8-.4-.4-.1-.8-.1-1.2-.1-1 0-1.8.3-2.4.8s-.9 1.3-.9 2.4V24h-6.5V8h5.8l.2 3.7c.4-1.3 1-2.3 1.8-3 .8-.7 1.8-1.1 3-1.1.6.1 1.2.2 1.6.5z" fill="#fff"/></g></mask><linearGradient id="c" gradientUnits="userSpaceOnUse" x1="93.598" y1="28.554" x2="94.598" y2="28.554" gradientTransform="matrix(234 0 0 56 -21901 -1593)"><stop offset="0" stop-color="#1c79c0"/><stop offset=".484" stop-color="#0389ed"/><stop offset="1" stop-color="#0dd3ff"/></linearGradient><path d="M1 34h234v-56H1v56z" mask="url(#b)" fill="url(#c)"/></svg>