<?xml version="1.0" standalone="no"?>
<!DOCTYPE svg PUBLIC "-//W3C//DTD SVG 20010904//EN"
 "http://www.w3.org/TR/2001/REC-SVG-20010904/DTD/svg10.dtd">
<svg version="1.0" xmlns="http://www.w3.org/2000/svg"
 width="270.000000pt" height="270.000000pt" viewBox="0 0 270.000000 270.000000"
 preserveAspectRatio="xMidYMid meet">
<metadata>
Created by potrace 1.11, written by Peter Selinger 2001-2013
</metadata>
<g transform="translate(0.000000,270.000000) scale(0.100000,-0.100000)"
fill="#000000" stroke="none">
<path d="M1949 1876 c-2 -2 -22 -6 -44 -9 -228 -32 -369 -221 -312 -418 36
-123 139 -185 397 -240 114 -24 149 -36 166 -58 34 -44 -22 -85 -119 -88 -131
-3 -223 27 -300 95 -21 20 -41 31 -46 26 -19 -22 -143 -206 -139 -208 1 -1 21
-16 43 -33 54 -41 158 -88 225 -103 158 -34 385 -17 496 37 155 76 218 234
155 395 -37 97 -190 180 -386 211 -109 17 -175 48 -175 81 0 20 30 51 62 64
15 6 62 10 105 8 92 -3 167 -32 233 -92 l42 -38 24 29 c14 17 44 55 67 85 23
30 48 62 56 70 12 12 8 19 -25 48 -110 95 -241 138 -422 140 -55 0 -101 -1
-103 -2z"/>
<path d="M202 1350 l3 -515 130 -1 c72 0 135 3 140 7 9 7 12 309 4 601 -1 65
0 120 2 122 3 3 29 -77 59 -177 29 -100 66 -222 81 -272 15 -49 40 -131 55
-182 18 -59 33 -93 43 -95 9 -2 68 -4 131 -3 l114 0 12 40 c7 22 38 123 69
225 32 102 63 205 70 230 41 140 68 226 74 232 3 4 5 -158 3 -360 l-3 -367
140 0 141 0 0 515 0 515 -215 0 c-183 0 -216 -2 -220 -15 -24 -78 -122 -427
-149 -531 -20 -72 -37 -133 -39 -136 -3 -2 -13 29 -22 69 -10 40 -33 127 -52
193 -19 66 -48 167 -64 225 -16 58 -36 125 -44 150 l-15 45 -225 0 -225 0 2
-515z"/>
</g>
</svg>
