<svg xmlns="http://www.w3.org/2000/svg" width="48" height="36" viewBox="0 0 48 36"><path d="M.579 21.09a.401.401 0 0 1 .35-.259l9.462-.59L5.24 8.155l-.004-.008a.398.398 0 0 1-.029-.13l.002-.037a.391.391 0 0 1 .015-.102.417.417 0 0 1 .08-.149l.007-.01.002-.002.002-.003a.396.396 0 0 1 .254-.119l.033-.002a.392.392 0 0 1 .14.022h.002c2.109.784 4.607 1.71 7.252 2.69l-1.005-8.047a.399.399 0 0 1 .004-.119c0-.006.004-.01.005-.015a.406.406 0 0 1 .148-.231c.006-.004.008-.01.014-.013.001-.002.003-.001.005-.003l.006-.005a.387.387 0 0 1 .124-.05.4.4 0 0 1 .145-.006c.01.001.02.001.03.004.044.01.088.024.127.05l.004.002h.001L34.68 15.587l1.739-.384.836-11.207c-.002-.031-.008-.061-.002-.093a.4.4 0 0 1 .096-.198l1.796-3.28a.395.395 0 0 1 .463-.191l3.932 1.154c.005.001.008.005.012.006.004.002.01.001.013.002L47.117 2.7a.4.4 0 0 1-.081.77l-3.88.552h-.016c-.006 0-.01.003-.014.003l-2.317.149.789 10.208a.406.406 0 0 1-.037.2L36.42 25.596h-.001c-.001.004-.005.006-.006.01a.403.403 0 0 1-.082.11c-.003.002-.004.007-.008.01l-10.53 9.41a.4.4 0 0 1-.337.096l-9.17-1.617a.4.4 0 0 1-.298-.237l-.784-1.841-2.473 1.361a.399.399 0 0 1-.472-.064L.675 21.518a.405.405 0 0 1-.096-.427zm35.09 4.146l.416-5.565c-2.64-.929-19.496-7.177-28.725-10.603l22.806 21.086 5.504-4.918zM19.022 12.539L12.99 3.784l.853 6.836 5.18 1.919zm-5.215-8.98l6.519 9.462c3.522 1.304 6.93 2.564 9.714 3.59l3.523-.777L13.806 3.559zM31.43 17.124a789.3 789.3 0 0 0 4.718 1.726l.21-2.814-4.928 1.088zM43.74 2.31l-.149.842 1.76-.25-1.611-.592zm-.768-.257l-3.279-.962-1.335 2.437 1.99-.127h.001l2.413-.155.21-1.193zm-2.96 2.17l-1.98.127-1.413 18.927 4.174-8.94-.782-10.114zM16.64 32.863l8.765 1.545 4.163-3.72L6.706 9.553l9.933 23.31zm-4.034-.81l2.284-1.257-4.165-9.775-8.846.552 10.727 10.48z"/></svg>